<?xml version="1.0" standalone="no"?>
<!DOCTYPE svg PUBLIC "-//W3C//DTD SVG 20010904//EN"
 "http://www.w3.org/TR/2001/REC-SVG-20010904/DTD/svg10.dtd">
<svg version="1.0" xmlns="http://www.w3.org/2000/svg"
 width="260.000000pt" height="260.000000pt" viewBox="0 0 260.000000 260.000000"
 preserveAspectRatio="xMidYMid meet">
<metadata>
Created by potrace 1.11, written by Peter Selinger 2001-2013
</metadata>
<g transform="translate(0.000000,260.000000) scale(0.100000,-0.100000)"
fill="#000000" stroke="none">
<path d="M888 1513 c-3 -457 -4 -501 -21 -531 -26 -47 -72 -72 -132 -72 -111
0 -165 66 -165 202 l0 78 -131 0 -131 0 4 -117 c3 -104 7 -126 32 -180 32 -69
98 -138 166 -173 125 -64 345 -64 471 0 64 33 134 111 158 176 33 88 41 208
41 677 l0 437 -145 0 -144 0 -3 -497z"/>
<path d="M1908 1513 c-3 -457 -4 -501 -21 -531 -26 -47 -72 -72 -132 -72 -111
0 -165 66 -165 202 l0 78 -131 0 -131 0 4 -117 c3 -104 7 -126 32 -180 32 -69
98 -138 166 -173 125 -64 345 -64 471 0 64 33 134 111 158 176 33 88 41 208
41 677 l0 437 -145 0 -144 0 -3 -497z"/>
</g>
</svg>
